<?xml version="1.0" encoding="utf-8"?>
<!-- Generator: Adobe Illustrator 24.1.2, SVG Export Plug-In . SVG Version: 6.00 Build 0)  -->
<svg version="1.1" xmlns="http://www.w3.org/2000/svg" xmlns:xlink="http://www.w3.org/1999/xlink" x="0px" y="0px"
	 viewBox="0 0 1366 768" style="enable-background:new 0 0 1366 768;" xml:space="preserve">
<style type="text/css">
	.st0{font-family:'BigCaslon-Medium';}
	.st1{font-size:96.9035px;}
</style>
<g id="Layer_2">
	<path d="M701.84,212.87c-5.32-11.44-14.06-21.16-24.14-28.63c-10.5-7.78-23.45-13.12-36.68-12.01c-0.6-0.37-1.35-0.54-2.21-0.36
		c-11.16,2.26-22.81,4.88-31.66,12.52c-4.72,4.07-8.07,9.51-11.02,14.93c-3.21,5.9-5.12,11.78-5.87,18.45
		c-1.34,11.87-2.12,24.99,4.25,35.65c3.12,5.22,7.45,9.75,11.57,14.18c3.99,4.28,8.39,8.4,13.68,11.02
		c5.84,2.89,12.24,4.04,18.64,4.91c6.73,0.91,13.42,1.38,20.18,0.45c11.92-1.63,25.16-5.07,34.29-13.3
		C709.05,256.1,710.62,231.74,701.84,212.87z M693.73,260.64c-6.29,8.95-15.94,12.75-26.2,15.36c-12.1,3.08-24.02,2.96-36.21,0.22
		c-5.6-1.26-10.7-3.46-15.1-7.2c-4.03-3.43-7.56-7.46-11.03-11.44c-3.78-4.32-7.02-8.89-8.51-14.51
		c-1.39-5.25-1.41-10.75-1.12-16.14c0.35-6.6,0.72-13.49,3.35-19.65c2.42-5.67,5.78-11.63,9.99-16.17
		c7.53-8.11,18.7-10.79,29.21-12.94c0.42,0.22,0.94,0.32,1.57,0.24c21.14-2.47,41.55,12.69,52.58,29.68
		C702.53,223.92,705,244.6,693.73,260.64z"/>
	<path d="M676.58,218.99c-0.93-1.06-2.07-1.89-3.33-2.51c-0.99-1.49-2.21-2.82-3.68-3.89c-2.29-1.66-5.28-2.56-8.08-1.82
		c-0.67,0.18-1.3,0.46-1.88,0.81c-3.75,0.22-7.31,3.96-9.43,6.63c-2.82,3.55-6.2,7.82-4.39,12.6c0.28,0.74,0.63,1.41,1.04,2.04
		c-0.01,0.22-0.02,0.44-0.02,0.66c-0.02,4.21,2.04,7.79,5.76,9.37c1.15,1.31,2.63,2.38,4.51,3.15c3.9,1.6,9.69,3.14,13.32,0.28
		c3.74-2.94,5.93-8.81,7.24-13.22C679.01,228.5,680.01,222.92,676.58,218.99z M655.16,231.71c-0.05-1.16,0.01-2.33,0.4-3.32
		c1.07-2.74,3.47-1.54,5.56-0.74c0.98,0.38,1.98,0.92,2.98,1.21c0.06,0.04,0.11,0.07,0.16,0.1c-0.08,0.15-0.16,0.29-0.25,0.42
		c-0.87,1.43-2.41,2.43-4.03,2.79C658.68,232.46,656.82,232.29,655.16,231.71z"/>
	<path d="M716.91,234.38c-2.55-28.69-12.65-56.49-29.65-79.79c-4.51-6.18-9.36-12.33-15.28-17.22c-5.99-4.95-12.91-8.27-20.34-10.46
		c-7.75-2.28-15.83-3.51-23.8-4.69c-8.73-1.3-17.51-2.03-26.13,0.32c-0.55,0.15-0.98,0.4-1.31,0.72
		c-10.96,2.97-21.78,6.42-32.41,10.43c-9.99,3.76-19.78,7.88-27.82,15.09c-1.96,1.75-3.77,3.62-5.47,5.58
		c-0.53-0.24-1.14-0.35-1.82-0.24c-9.06,1.39-17.22,8.71-23.62,14.85c-3.47,3.32-6.66,7.12-8.77,11.47
		c-2.27,4.68-3.63,9.85-4.81,14.89c-2.3,9.86-3.07,20.41-1.31,30.34c-0.95,0.58-1.83,1.23-2.61,1.93c-5.11,4.58-6.83,12.02-5,18.53
		c1.67,5.95,6.04,10.39,11.45,13.01c-13.67,11.55-28.52,22.64-39.63,36.67c-5.9,7.46-10.79,16.48-10.3,26.28
		c0.19,3.9,1.31,8.09,4.23,10.85c3.69,3.49,8.27,2.64,12.7,1.28c16.89-5.18,32.76-13.04,48.11-21.71c2.99,1.97,6.59,2.63,10.25,2.8
		c5.99,0.28,12.06-0.01,18.05-0.14c6.3-0.14,12.6-0.37,18.9-0.67c0.13-0.01,0.25-0.01,0.38-0.02c9.27,9.94,14.04,23.99,19.08,36.33
		c6.14,15.05,10.29,30.09,11.9,46.28c3.34,33.51,5.47,67.16,6.84,100.81c0.77,18.95,1.25,37.91,1.46,56.88c0.04,3.9,6.1,3.91,6.06,0
		c-0.37-34.74-1.69-69.46-3.98-104.12c-1.13-17.1-2.47-34.2-4.1-51.26c-0.77-8.09-1.7-16.19-3.58-24.11
		c-1.87-7.84-4.53-15.46-7.5-22.95c-3.14-7.93-6.46-15.84-10.05-23.59c-2.4-5.16-5.13-10.18-8.57-14.68c0.5-0.03,1-0.05,1.5-0.08
		c2.56-0.16,4.31-0.21,5.9-2.37c0.86-1.16,0.31-2.69-0.47-3.67c-0.08-0.09-0.15-0.19-0.23-0.28c-1.35-1.7-3.26-1.11-4.28,0.25
		c-0.17-0.49-1.9,0.07-2.69,0.12c-1.38,0.08-2.75,0.16-4.13,0.23c-0.26,0.01-0.51,0.02-0.77,0.04c-1.3-1.05-2.85-0.72-3.87,0.19
		c-0.82,0.04-1.63,0.08-2.45,0.12c-5.12,0.22-10.24,0.39-15.36,0.51c-5.12,0.12-10.24,0.21-15.36,0.19
		c-2.12-0.01-4.38-0.01-6.45-0.51c0.36-0.21,0.72-0.42,1.08-0.62c20.15-11.78,39.8-24.5,61.02-34.34c3.53-1.64,0.46-6.86-3.06-5.23
		c-22.64,10.5-43.51,24.44-65.15,36.85c-1.29-0.19-2.56,0.64-3.15,1.79c-10.94,6.17-22.1,11.89-33.83,16.52
		c-4.47,1.77-9.01,3.38-13.61,4.76c-2.06,0.62-4.46,1.63-6.32,0.12c-1.54-1.26-2.17-3.7-2.39-5.58
		c-1.09-9.45,4.51-18.46,10.39-25.33c11.71-13.68,26.53-24.67,40.12-36.38c8.98-7.75,17.76-15.87,25.44-24.89
		c0.61,0.16,1.22,0.33,1.82,0.52c4.97,1.56,9.58,4.37,12.24,8.96c0.15,0.26,0.32,0.48,0.51,0.66c-1.07,2.59-1.51,5.54-1.18,8.6
		c1,9.22,8.01,17.06,17.89,15.81c4.3-0.55,9.06-2.93,11.86-6.28c3.05-3.64,3.67-9.05,3.08-13.62c-1.06-8.2-8.27-15.63-16.75-13.87
		c-0.31-0.1-0.66-0.15-1.06-0.14c-4.11,0.14-7.59,1.69-10.18,4.15c-3.4-4.82-8.52-7.99-14.1-9.87c3.54-4.58,6.78-9.4,9.6-14.52
		c1.88-3.42-3.35-6.48-5.23-3.06c-3.14,5.7-6.81,10.99-10.84,15.99c-1.76-0.28-3.53-0.45-5.29-0.51
		c-1.72-17.42-1.29-35.26,5.14-51.7c3.28-8.39,8.17-16.29,14.6-22.63c7.22-7.12,16.17-11.23,25.53-14.8
		c11.71-4.47,23.65-8.3,35.77-11.51c0.52-0.14,0.93-0.37,1.25-0.66c6.99-1.54,14.17-0.96,21.23,0.09c6.96,1.03,13.98,2.13,20.8,3.87
		c6.73,1.72,13.25,4.22,18.89,8.35c5.69,4.15,10.35,9.73,14.57,15.32c16.9,22.32,27.45,49.21,30.2,77.07
		c3.09,31.32-2.6,62.57-8.9,93.14c-6.31,30.66-12.3,61.24-15.72,92.39c-3.87,35.19-5.14,70.64-3.9,106.02c0.14,3.89,6.19,3.9,6.06,0
		c-1.15-32.63-0.15-65.31,3.04-97.8c3.21-32.62,9.24-64.63,15.88-96.69C713.63,298.46,719.75,266.42,716.91,234.38z M557.2,243.3
		c0.62,0.45,1.45,0.61,2.43,0.26c5.76-2.05,10.26,2.95,10.94,8.34c0.38,2.98,0.11,6.93-2,9.23c-1.83,1.99-5.1,3.56-7.77,3.88
		C548.24,266.52,545.36,245.38,557.2,243.3z M502.27,197.91c0.12-0.23,0.25-0.45,0.39-0.67c0.06,0.09,0.12,0.2,0.2,0.31
		c0.06,1.06,0.57,2.04,0.56,3.15c-0.02,1.99-0.88,4.13-3.05,4.3C500.54,202.53,501.04,200.11,502.27,197.91z M502.98,255
		c-0.32-0.36-0.73-0.67-1.26-0.87c-8.36-3.26-13.4-14.46-6.35-21.64c0.15-0.16,0.32-0.31,0.5-0.47c2.14,7.07,5.78,13.65,11.32,19.2
		c0.01,0.01,0.02,0.01,0.03,0.02C505.81,252.51,504.4,253.76,502.98,255z M501.32,229.21c1.97-0.4,3.92-0.1,5.24,1.54
		c1.51,1.88,1.78,4.77,2.09,7.05c0.32,2.35,0.6,4.7,0.89,7.05C505.55,240.2,502.9,234.88,501.32,229.21z M515.46,243.49
		c-0.22-2.28-0.39-4.76-0.75-7.19c0.8-0.45,1.7-0.72,2.64-0.87c0.23,1.82,0.47,3.64,0.72,5.46
		C517.21,241.77,516.34,242.63,515.46,243.49z M516.25,201.86c-0.82,9.19-0.48,18.41,0.43,27.58c-1.21,0.15-2.4,0.42-3.51,0.86
		c-0.79-1.93-1.89-3.65-3.5-4.99c-2.73-2.27-6.23-2.68-9.6-1.96c-0.15-0.96-0.28-1.92-0.37-2.89c0.33,0.04,0.68,0.05,1.05,0.03
		c3.83-0.28,6.05-4.64,7.3-7.75c1.71-4.22,2.9-8.76,3.23-13.31c0.27-3.74,0.19-8.96-3.07-11.51c-1.05-0.82-2.37-1.19-3.65-1.14
		c1.92-4.84,4.55-9.25,8.62-13.19c4.53-4.4,10.04-9.52,16.18-12.13C521.57,173.39,517.5,187.71,516.25,201.86z"/>
	<g id="Layer_3">
	</g>
</g>
<g id="Layer_4">
	<text transform="matrix(1 0 0 1 378.2334 633.543)" class="st0 st1">Goosepaper</text>
</g>
</svg>
